<?xml version="1.0" encoding="utf-8"?>
<!-- Generator: Adobe Illustrator 17.0.0, SVG Export Plug-In . SVG Version: 6.00 Build 0)  -->
<!DOCTYPE svg PUBLIC "-//W3C//DTD SVG 1.1//EN" "http://www.w3.org/Graphics/SVG/1.1/DTD/svg11.dtd">
<svg version="1.1" id="Layer_1" xmlns="http://www.w3.org/2000/svg" xmlns:xlink="http://www.w3.org/1999/xlink" x="0px" y="0px"
	 width="679.371px" height="215.004px" viewBox="0 0 679.371 215.004" style="enable-background:new 0 0 679.371 215.004;"
	 xml:space="preserve">
<style type="text/css">
	.st0{fill-rule:evenodd;clip-rule:evenodd;fill:#D1D3D4;}
	.st1{fill-rule:evenodd;clip-rule:evenodd;fill:#123D26;}
	.st2{fill-rule:evenodd;clip-rule:evenodd;fill:#E8E8B8;}
	.st3{fill-rule:evenodd;clip-rule:evenodd;fill:#C43030;}
	.st4{fill-rule:evenodd;clip-rule:evenodd;fill:none;stroke:#E8E8B8;stroke-width:13.4274;stroke-miterlimit:10;}
	.st5{fill:#E8E8B8;}
	.st6{fill:#123D26;}
	.st7{fill:#A7A9AC;}
	.st8{fill:none;stroke:#58595B;stroke-miterlimit:10;}
	.st9{fill:#1A4F33;}
	.st10{fill:#FFFFFF;}
	.st11{fill:#FFDE17;}
	.st12{opacity:0.5;}
	.st13{fill:#777651;}
	.st14{fill:#C43030;}
	.st15{opacity:0.3;}
	.st16{opacity:0.6;fill-rule:evenodd;clip-rule:evenodd;fill:none;stroke:#68674C;stroke-width:2.0749;stroke-miterlimit:10;}
	.st17{opacity:0.6;fill-rule:evenodd;clip-rule:evenodd;fill:none;stroke:#68674C;stroke-width:1.3181;stroke-miterlimit:10;}
	.st18{fill-rule:evenodd;clip-rule:evenodd;fill:#D68080;}
	.st19{fill-rule:evenodd;clip-rule:evenodd;fill:#777651;}
	.st20{fill-rule:evenodd;clip-rule:evenodd;fill:#C1BF91;}
	.st21{fill-rule:evenodd;clip-rule:evenodd;fill:#C43030;stroke:#E8E8B8;stroke-width:16;stroke-miterlimit:10;}
	.st22{fill-rule:evenodd;clip-rule:evenodd;fill:none;stroke:#E8E8B8;stroke-width:7.1411;stroke-miterlimit:10;}
	.st23{fill-rule:evenodd;clip-rule:evenodd;fill:#C43030;stroke:#E8E8B8;stroke-width:8.5093;stroke-miterlimit:10;}
	.st24{opacity:0.8;fill-rule:evenodd;clip-rule:evenodd;fill:#231F20;}
	.st25{fill:none;stroke:#E8E8B8;stroke-width:5;stroke-miterlimit:10;}
	.st26{fill-rule:evenodd;clip-rule:evenodd;fill:#123D26;stroke:#E8E8B8;stroke-width:8.5093;stroke-miterlimit:10;}
	.st27{fill-rule:evenodd;clip-rule:evenodd;fill:none;stroke:#C43030;stroke-width:7.1411;stroke-miterlimit:10;}
	.st28{fill-rule:evenodd;clip-rule:evenodd;fill:#E8E8B8;stroke:#C43030;stroke-width:8.5093;stroke-miterlimit:10;}
	.st29{fill:none;stroke:#C43030;stroke-width:5;stroke-miterlimit:10;}
	.st30{fill-rule:evenodd;clip-rule:evenodd;fill:none;stroke:#C43030;stroke-width:7.1416;stroke-miterlimit:10;}
	.st31{fill:none;stroke:#C43030;stroke-width:5.0004;stroke-miterlimit:10;}
	.st32{fill-rule:evenodd;clip-rule:evenodd;fill:none;stroke:#FFFFFF;stroke-width:10.446;stroke-miterlimit:10;}
	.st33{fill:none;stroke:#FFFFFF;stroke-width:7.314;stroke-miterlimit:10;}
	.st34{opacity:0.3;fill-rule:evenodd;clip-rule:evenodd;fill:#E8E8B8;}
	.st35{fill:none;stroke:#123D26;stroke-width:5.0004;stroke-miterlimit:10;}
	.st36{fill-rule:evenodd;clip-rule:evenodd;fill:none;stroke:#E8E8B8;stroke-width:7.1416;stroke-miterlimit:10;}
	.st37{fill:none;stroke:#E8E8B8;stroke-width:5.0004;stroke-miterlimit:10;}
	.st38{fill:none;stroke:#E8E8B8;stroke-width:6.2218;stroke-miterlimit:10;}
	.st39{opacity:0.5;fill-rule:evenodd;clip-rule:evenodd;fill:#414042;}
	.st40{opacity:0.5;fill-rule:evenodd;clip-rule:evenodd;fill:#594A42;}
	.st41{opacity:0.5;fill-rule:evenodd;clip-rule:evenodd;fill:#123D26;}
	.st42{fill-rule:evenodd;clip-rule:evenodd;fill:#231F20;}
	.st43{opacity:0.87;}
	.st44{opacity:0.9;}
	.st45{opacity:0.97;}
	.st46{fill:#231F20;}
	.st47{fill:#E6E7E8;}
	.st48{fill:#808285;}
	.st49{opacity:0.9;fill:#FFFFFF;}
	.st50{opacity:0.7;}
	.st51{opacity:0.9;fill-rule:evenodd;clip-rule:evenodd;fill:#939598;}
	.st52{opacity:0.6;}
	.st53{opacity:0.4;}
	.st54{opacity:0.5;fill-rule:evenodd;clip-rule:evenodd;fill:#231F20;}
	.st55{opacity:0.5;fill:#FFFFFF;}
	.st56{opacity:0.87;fill:#FFFFFF;}
</style>
<g>
	<path class="st10" d="M23.736,194.995c0.789,0,1.494-0.133,2.114-0.398c0.62-0.267,1.146-0.639,1.576-1.117
		c0.43-0.479,0.758-1.051,0.983-1.716c0.227-0.664,0.339-1.396,0.339-2.193v-11.582h2.566v11.582c0,1.099-0.175,2.118-0.524,3.059
		c-0.351,0.939-0.852,1.753-1.503,2.439c-0.651,0.688-1.447,1.226-2.387,1.615c-0.939,0.391-1.995,0.585-3.165,0.585
		s-2.225-0.194-3.164-0.585c-0.94-0.39-1.738-0.928-2.394-1.615c-0.656-0.687-1.159-1.5-1.51-2.439
		c-0.35-0.94-0.524-1.96-0.524-3.059v-11.582h2.565v11.568c0,0.798,0.113,1.529,0.34,2.194c0.226,0.665,0.554,1.236,0.983,1.715
		s0.958,0.854,1.583,1.124C22.24,194.86,22.947,194.995,23.736,194.995z"/>
	<path class="st10" d="M48.162,180.967c-0.079,0.133-0.164,0.233-0.252,0.3c-0.089,0.066-0.204,0.1-0.346,0.1
		c-0.151,0-0.326-0.075-0.525-0.227c-0.199-0.15-0.452-0.316-0.758-0.498c-0.307-0.182-0.674-0.348-1.104-0.499
		c-0.431-0.15-0.951-0.226-1.562-0.226c-0.577,0-1.086,0.077-1.529,0.232s-0.813,0.365-1.11,0.632
		c-0.297,0.266-0.521,0.578-0.672,0.938c-0.15,0.358-0.226,0.746-0.226,1.163c0,0.532,0.131,0.973,0.392,1.323
		c0.262,0.35,0.607,0.649,1.038,0.897c0.43,0.248,0.917,0.463,1.462,0.645c0.546,0.182,1.104,0.37,1.676,0.565
		c0.571,0.195,1.13,0.414,1.675,0.658c0.546,0.244,1.033,0.552,1.463,0.924s0.775,0.829,1.037,1.37
		c0.262,0.54,0.393,1.205,0.393,1.994c0,0.833-0.142,1.615-0.426,2.347c-0.283,0.731-0.698,1.368-1.243,1.908
		c-0.545,0.541-1.215,0.967-2.008,1.276c-0.793,0.311-1.695,0.466-2.706,0.466c-1.232,0-2.355-0.224-3.37-0.672
		c-1.016-0.447-1.882-1.053-2.6-1.814l0.744-1.224c0.071-0.098,0.157-0.18,0.26-0.246c0.102-0.066,0.215-0.1,0.339-0.1
		c0.187,0,0.398,0.1,0.639,0.299c0.239,0.2,0.538,0.419,0.897,0.658c0.358,0.239,0.793,0.459,1.303,0.658
		c0.51,0.2,1.132,0.3,1.868,0.3c0.611,0,1.157-0.084,1.636-0.253c0.479-0.168,0.884-0.405,1.217-0.711
		c0.332-0.307,0.587-0.672,0.765-1.098c0.177-0.425,0.266-0.899,0.266-1.423c0-0.576-0.131-1.048-0.393-1.416
		c-0.262-0.367-0.604-0.676-1.03-0.924s-0.911-0.459-1.456-0.632s-1.104-0.35-1.676-0.532c-0.571-0.181-1.13-0.392-1.675-0.631
		s-1.03-0.55-1.456-0.931c-0.426-0.382-0.77-0.858-1.03-1.43c-0.262-0.572-0.393-1.278-0.393-2.121c0-0.674,0.131-1.325,0.393-1.954
		c0.261-0.63,0.64-1.188,1.137-1.676c0.496-0.487,1.11-0.878,1.842-1.17c0.73-0.293,1.57-0.439,2.52-0.439
		c1.063,0,2.034,0.169,2.912,0.506c0.877,0.337,1.644,0.824,2.3,1.463L48.162,180.967z"/>
	<path class="st10" d="M66.897,177.988v2.102h-9.148v6.329h7.406v2.021h-7.406v6.503h9.148v2.101H55.156v-19.055H66.897z"/>
	<path class="st10" d="M76.099,189.092v7.951h-2.566v-19.055h5.386c1.205,0,2.247,0.122,3.125,0.366
		c0.877,0.244,1.602,0.596,2.174,1.057c0.571,0.461,0.995,1.018,1.27,1.669c0.275,0.651,0.412,1.381,0.412,2.188
		c0,0.674-0.106,1.303-0.318,1.888c-0.213,0.585-0.521,1.11-0.925,1.576c-0.403,0.465-0.896,0.862-1.476,1.189
		c-0.581,0.328-1.239,0.577-1.975,0.745c0.319,0.187,0.603,0.457,0.851,0.812l5.559,7.565h-2.287c-0.47,0-0.815-0.182-1.037-0.545
		l-4.946-6.809c-0.151-0.212-0.315-0.365-0.492-0.458c-0.178-0.094-0.443-0.14-0.798-0.14H76.099z M76.099,187.217h2.699
		c0.754,0,1.417-0.091,1.988-0.272s1.051-0.439,1.437-0.771c0.385-0.332,0.676-0.729,0.87-1.19c0.195-0.461,0.293-0.971,0.293-1.529
		c0-1.134-0.375-1.989-1.124-2.565s-1.863-0.864-3.344-0.864h-2.819V187.217z"/>
	<path class="st10" d="M112.585,177.988v2.102h-9.148v6.661h7.818v2.102h-7.818v8.19h-2.593v-19.055H112.585z"/>
	<path class="st10" d="M121.388,189.092v7.951h-2.566v-19.055h5.386c1.205,0,2.247,0.122,3.125,0.366
		c0.877,0.244,1.602,0.596,2.174,1.057c0.571,0.461,0.995,1.018,1.27,1.669c0.275,0.651,0.412,1.381,0.412,2.188
		c0,0.674-0.106,1.303-0.318,1.888c-0.213,0.585-0.521,1.11-0.925,1.576c-0.403,0.465-0.896,0.862-1.476,1.189
		c-0.581,0.328-1.239,0.577-1.975,0.745c0.319,0.187,0.603,0.457,0.851,0.812l5.559,7.565h-2.287c-0.47,0-0.815-0.182-1.037-0.545
		l-4.946-6.809c-0.151-0.212-0.315-0.365-0.492-0.458c-0.178-0.094-0.443-0.14-0.798-0.14H121.388z M121.388,187.217h2.699
		c0.754,0,1.417-0.091,1.988-0.272s1.051-0.439,1.437-0.771c0.385-0.332,0.676-0.729,0.87-1.19c0.195-0.461,0.293-0.971,0.293-1.529
		c0-1.134-0.375-1.989-1.124-2.565s-1.863-0.864-3.344-0.864h-2.819V187.217z"/>
	<path class="st10" d="M141.399,197.043h-2.58v-19.055h2.58V197.043z"/>
	<path class="st10" d="M160.905,177.988v2.102h-9.148v6.329h7.406v2.021h-7.406v6.503h9.148v2.101h-11.741v-19.055H160.905z"/>
	<path class="st10" d="M169.116,178.075c0.11,0.058,0.237,0.175,0.379,0.353l11.036,14.36c-0.026-0.23-0.044-0.454-0.053-0.672
		c-0.009-0.217-0.014-0.428-0.014-0.631v-13.497h2.261v19.055h-1.303c-0.204,0-0.375-0.035-0.513-0.106
		c-0.137-0.07-0.272-0.19-0.405-0.359l-11.023-14.347c0.019,0.222,0.031,0.438,0.04,0.651s0.014,0.408,0.014,0.585v13.576h-2.261
		v-19.055h1.33C168.835,177.988,169.005,178.018,169.116,178.075z"/>
	<path class="st10" d="M206.554,187.522c0,1.428-0.226,2.726-0.678,3.896c-0.452,1.171-1.091,2.173-1.915,3.006
		s-1.812,1.478-2.965,1.935c-1.152,0.456-2.43,0.685-3.83,0.685h-7.127v-19.055h7.127c1.4,0,2.678,0.229,3.83,0.686
		c1.152,0.456,2.141,1.104,2.965,1.94c0.824,0.838,1.463,1.842,1.915,3.012C206.328,184.797,206.554,186.096,206.554,187.522z
		 M203.908,187.522c0-1.17-0.16-2.216-0.479-3.138c-0.318-0.922-0.771-1.702-1.355-2.341c-0.585-0.638-1.295-1.125-2.128-1.463
		c-0.833-0.336-1.76-0.505-2.779-0.505h-4.534v14.879h4.534c1.02,0,1.946-0.168,2.779-0.505s1.543-0.822,2.128-1.456
		s1.037-1.411,1.355-2.334C203.748,189.738,203.908,188.692,203.908,187.522z"/>
	<path class="st10" d="M215.303,194.876h8.244v2.167h-10.824v-19.055h2.58V194.876z"/>
	<path class="st10" d="M233.572,189.464v7.579h-2.566v-7.579l-6.98-11.476h2.261c0.23,0,0.412,0.058,0.545,0.173
		s0.248,0.258,0.346,0.426l4.361,7.406c0.177,0.311,0.326,0.604,0.445,0.878c0.12,0.274,0.229,0.545,0.326,0.811
		c0.097-0.274,0.203-0.549,0.318-0.824c0.115-0.274,0.262-0.562,0.439-0.864l4.348-7.406c0.08-0.142,0.188-0.277,0.326-0.405
		c0.137-0.129,0.316-0.193,0.538-0.193h2.287L233.572,189.464z"/>
	<path class="st10" d="M269.926,187.522c0,1.428-0.226,2.726-0.678,3.896c-0.452,1.171-1.091,2.173-1.915,3.006
		s-1.812,1.478-2.965,1.935c-1.152,0.456-2.43,0.685-3.83,0.685h-7.127v-19.055h7.127c1.4,0,2.678,0.229,3.83,0.686
		c1.152,0.456,2.141,1.104,2.965,1.94c0.824,0.838,1.463,1.842,1.915,3.012C269.7,184.797,269.926,186.096,269.926,187.522z
		 M267.28,187.522c0-1.17-0.16-2.216-0.479-3.138c-0.318-0.922-0.771-1.702-1.355-2.341c-0.585-0.638-1.295-1.125-2.128-1.463
		c-0.833-0.336-1.76-0.505-2.779-0.505h-4.534v14.879h4.534c1.02,0,1.946-0.168,2.779-0.505s1.543-0.822,2.128-1.456
		s1.037-1.411,1.355-2.334C267.12,189.738,267.28,188.692,267.28,187.522z"/>
	<path class="st10" d="M287.836,177.988v2.102h-9.148v6.329h7.406v2.021h-7.406v6.503h9.148v2.101h-11.741v-19.055H287.836z"/>
	<path class="st10" d="M303.965,180.967c-0.079,0.133-0.164,0.233-0.252,0.3c-0.089,0.066-0.204,0.1-0.346,0.1
		c-0.151,0-0.326-0.075-0.525-0.227c-0.199-0.15-0.452-0.316-0.758-0.498c-0.307-0.182-0.674-0.348-1.104-0.499
		c-0.431-0.15-0.951-0.226-1.562-0.226c-0.577,0-1.086,0.077-1.529,0.232s-0.813,0.365-1.11,0.632
		c-0.297,0.266-0.521,0.578-0.672,0.938c-0.15,0.358-0.226,0.746-0.226,1.163c0,0.532,0.131,0.973,0.392,1.323
		c0.262,0.35,0.607,0.649,1.038,0.897c0.43,0.248,0.917,0.463,1.462,0.645c0.546,0.182,1.104,0.37,1.676,0.565
		c0.571,0.195,1.13,0.414,1.675,0.658c0.546,0.244,1.033,0.552,1.463,0.924s0.775,0.829,1.037,1.37
		c0.262,0.54,0.393,1.205,0.393,1.994c0,0.833-0.142,1.615-0.426,2.347c-0.283,0.731-0.698,1.368-1.243,1.908
		c-0.545,0.541-1.215,0.967-2.008,1.276c-0.793,0.311-1.695,0.466-2.706,0.466c-1.232,0-2.355-0.224-3.37-0.672
		c-1.016-0.447-1.882-1.053-2.6-1.814l0.744-1.224c0.071-0.098,0.157-0.18,0.26-0.246c0.102-0.066,0.215-0.1,0.339-0.1
		c0.187,0,0.398,0.1,0.639,0.299c0.239,0.2,0.538,0.419,0.897,0.658c0.358,0.239,0.793,0.459,1.303,0.658
		c0.51,0.2,1.132,0.3,1.868,0.3c0.611,0,1.157-0.084,1.636-0.253c0.479-0.168,0.884-0.405,1.217-0.711
		c0.332-0.307,0.587-0.672,0.765-1.098c0.177-0.425,0.266-0.899,0.266-1.423c0-0.576-0.131-1.048-0.393-1.416
		c-0.262-0.367-0.604-0.676-1.03-0.924s-0.911-0.459-1.456-0.632s-1.104-0.35-1.676-0.532c-0.571-0.181-1.13-0.392-1.675-0.631
		s-1.03-0.55-1.456-0.931c-0.426-0.382-0.77-0.858-1.03-1.43c-0.262-0.572-0.393-1.278-0.393-2.121c0-0.674,0.131-1.325,0.393-1.954
		c0.261-0.63,0.64-1.188,1.137-1.676c0.496-0.487,1.11-0.878,1.842-1.17c0.73-0.293,1.57-0.439,2.52-0.439
		c1.063,0,2.034,0.169,2.912,0.506c0.877,0.337,1.644,0.824,2.3,1.463L303.965,180.967z"/>
	<path class="st10" d="M314.018,197.043h-2.58v-19.055h2.58V197.043z"/>
	<path class="st10" d="M330.279,195.168c0.514,0,0.985-0.024,1.416-0.073c0.43-0.049,0.835-0.121,1.217-0.219
		c0.381-0.098,0.74-0.215,1.077-0.353c0.336-0.138,0.673-0.295,1.01-0.473v-4.201h-2.951c-0.169,0-0.304-0.049-0.406-0.146
		c-0.102-0.098-0.152-0.217-0.152-0.359v-1.462h5.851v7.312c-0.479,0.346-0.978,0.647-1.496,0.904
		c-0.519,0.258-1.072,0.473-1.662,0.646s-1.221,0.301-1.895,0.386c-0.674,0.084-1.405,0.126-2.194,0.126
		c-1.383,0-2.65-0.237-3.803-0.712c-1.152-0.474-2.146-1.139-2.979-1.994s-1.482-1.882-1.948-3.078
		c-0.465-1.197-0.698-2.514-0.698-3.949c0-1.454,0.229-2.779,0.686-3.976c0.456-1.197,1.107-2.223,1.954-3.078
		s1.87-1.519,3.071-1.988s2.547-0.705,4.036-0.705c0.753,0,1.454,0.056,2.101,0.167c0.647,0.11,1.248,0.271,1.802,0.479
		s1.066,0.461,1.536,0.758s0.908,0.632,1.316,1.004l-0.731,1.17c-0.15,0.239-0.346,0.359-0.585,0.359
		c-0.142,0-0.297-0.049-0.466-0.146c-0.222-0.124-0.47-0.274-0.744-0.452c-0.275-0.177-0.609-0.348-1.004-0.512
		s-0.86-0.304-1.396-0.419s-1.172-0.173-1.908-0.173c-1.072,0-2.043,0.175-2.912,0.525c-0.868,0.35-1.608,0.851-2.221,1.502
		c-0.611,0.652-1.081,1.441-1.409,2.367c-0.328,0.927-0.492,1.966-0.492,3.118c0,1.206,0.171,2.28,0.513,3.225
		c0.341,0.944,0.821,1.744,1.442,2.4c0.62,0.655,1.356,1.156,2.207,1.502C328.312,194.995,329.251,195.168,330.279,195.168z"/>
	<path class="st10" d="M345.804,178.075c0.11,0.058,0.237,0.175,0.379,0.353l11.036,14.36c-0.026-0.23-0.044-0.454-0.053-0.672
		c-0.009-0.217-0.014-0.428-0.014-0.631v-13.497h2.261v19.055h-1.303c-0.204,0-0.375-0.035-0.513-0.106
		c-0.137-0.07-0.272-0.19-0.405-0.359l-11.023-14.347c0.019,0.222,0.031,0.438,0.04,0.651s0.014,0.408,0.014,0.585v13.576h-2.261
		v-19.055h1.33C345.522,177.988,345.692,178.018,345.804,178.075z"/>
	<path class="st10" d="M390.194,197.043H388.2c-0.23,0-0.417-0.058-0.559-0.173s-0.248-0.262-0.319-0.438l-1.781-4.601h-8.55
		l-1.782,4.601c-0.062,0.159-0.168,0.301-0.319,0.425c-0.15,0.125-0.337,0.187-0.558,0.187h-1.995l7.619-19.055h2.619
		L390.194,197.043z M377.709,189.969h7.114l-2.992-7.752c-0.195-0.479-0.386-1.077-0.572-1.795
		c-0.098,0.363-0.192,0.698-0.285,1.004c-0.094,0.306-0.185,0.574-0.272,0.805L377.709,189.969z"/>
	<path class="st10" d="M397.102,178.075c0.11,0.058,0.237,0.175,0.379,0.353l11.036,14.36c-0.026-0.23-0.044-0.454-0.053-0.672
		c-0.009-0.217-0.014-0.428-0.014-0.631v-13.497h2.261v19.055h-1.303c-0.204,0-0.375-0.035-0.513-0.106
		c-0.137-0.07-0.272-0.19-0.405-0.359l-11.023-14.347c0.019,0.222,0.031,0.438,0.04,0.651s0.014,0.408,0.014,0.585v13.576h-2.261
		v-19.055h1.33C396.82,177.988,396.99,178.018,397.102,178.075z"/>
	<path class="st10" d="M434.539,187.522c0,1.428-0.226,2.726-0.678,3.896c-0.452,1.171-1.091,2.173-1.915,3.006
		s-1.812,1.478-2.965,1.935c-1.152,0.456-2.43,0.685-3.83,0.685h-7.127v-19.055h7.127c1.4,0,2.678,0.229,3.83,0.686
		c1.152,0.456,2.141,1.104,2.965,1.94c0.824,0.838,1.463,1.842,1.915,3.012C434.313,184.797,434.539,186.096,434.539,187.522z
		 M431.894,187.522c0-1.17-0.16-2.216-0.479-3.138c-0.318-0.922-0.771-1.702-1.355-2.341c-0.585-0.638-1.295-1.125-2.128-1.463
		c-0.833-0.336-1.76-0.505-2.779-0.505h-4.534v14.879h4.534c1.02,0,1.946-0.168,2.779-0.505s1.543-0.822,2.128-1.456
		s1.037-1.411,1.355-2.334C431.733,189.738,431.894,188.692,431.894,187.522z"/>
	<path class="st10" d="M465.015,187.522c0,1.428-0.226,2.726-0.678,3.896c-0.452,1.171-1.091,2.173-1.915,3.006
		s-1.812,1.478-2.965,1.935c-1.152,0.456-2.43,0.685-3.83,0.685H448.5v-19.055h7.127c1.4,0,2.678,0.229,3.83,0.686
		c1.152,0.456,2.141,1.104,2.965,1.94c0.824,0.838,1.463,1.842,1.915,3.012C464.789,184.797,465.015,186.096,465.015,187.522z
		 M462.369,187.522c0-1.17-0.16-2.216-0.479-3.138c-0.318-0.922-0.771-1.702-1.355-2.341c-0.585-0.638-1.295-1.125-2.128-1.463
		c-0.833-0.336-1.76-0.505-2.779-0.505h-4.534v14.879h4.534c1.02,0,1.946-0.168,2.779-0.505s1.543-0.822,2.128-1.456
		s1.037-1.411,1.355-2.334C462.209,189.738,462.369,188.692,462.369,187.522z"/>
	<path class="st10" d="M482.926,177.988v2.102h-9.148v6.329h7.406v2.021h-7.406v6.503h9.148v2.101h-11.741v-19.055H482.926z"/>
	<path class="st10" d="M487.088,177.988h2.061c0.23,0,0.417,0.058,0.559,0.173s0.248,0.262,0.319,0.439l5.386,13.442
		c0.124,0.302,0.236,0.63,0.339,0.984c0.102,0.354,0.201,0.723,0.299,1.104c0.08-0.381,0.166-0.749,0.26-1.104
		c0.093-0.354,0.201-0.683,0.325-0.984l5.358-13.442c0.062-0.151,0.169-0.291,0.319-0.419c0.15-0.129,0.337-0.193,0.559-0.193h2.074
		l-7.766,19.055h-2.326L487.088,177.988z"/>
	<path class="st10" d="M521.778,177.988v2.102h-9.148v6.329h7.406v2.021h-7.406v6.503h9.148v2.101h-11.741v-19.055H521.778z"/>
	<path class="st10" d="M530.728,194.876h8.244v2.167h-10.824v-19.055h2.58V194.876z"/>
	<path class="st10" d="M561.11,187.522c0,1.428-0.226,2.737-0.678,3.929c-0.452,1.192-1.091,2.219-1.915,3.079
		c-0.824,0.859-1.815,1.526-2.972,2.001c-1.157,0.474-2.436,0.711-3.836,0.711c-1.401,0-2.678-0.237-3.83-0.711
		c-1.152-0.475-2.141-1.142-2.965-2.001c-0.824-0.86-1.463-1.887-1.915-3.079c-0.452-1.191-0.678-2.501-0.678-3.929
		c0-1.427,0.226-2.737,0.678-3.93c0.452-1.191,1.091-2.22,1.915-3.084s1.812-1.536,2.965-2.015s2.429-0.719,3.83-0.719
		c1.4,0,2.679,0.24,3.836,0.719c1.156,0.479,2.147,1.15,2.972,2.015s1.463,1.893,1.915,3.084
		C560.885,184.785,561.11,186.096,561.11,187.522z M558.464,187.522c0-1.17-0.159-2.221-0.479-3.151s-0.771-1.718-1.356-2.36
		c-0.585-0.643-1.294-1.137-2.127-1.482s-1.765-0.519-2.792-0.519c-1.02,0-1.946,0.173-2.779,0.519
		c-0.834,0.346-1.545,0.84-2.135,1.482c-0.589,0.643-1.043,1.43-1.362,2.36s-0.479,1.981-0.479,3.151s0.159,2.219,0.479,3.145
		c0.319,0.927,0.773,1.711,1.362,2.354c0.59,0.643,1.301,1.135,2.135,1.477c0.833,0.341,1.76,0.512,2.779,0.512
		c1.027,0,1.959-0.171,2.792-0.512c0.833-0.342,1.542-0.834,2.127-1.477c0.586-0.643,1.037-1.427,1.356-2.354
		C558.305,189.741,558.464,188.692,558.464,187.522z"/>
	<path class="st10" d="M570.125,189.916v7.127h-2.566v-19.055h5.625c1.205,0,2.254,0.14,3.145,0.419s1.629,0.677,2.214,1.19
		s1.021,1.135,1.31,1.861c0.288,0.728,0.433,1.538,0.433,2.434c0,0.887-0.155,1.697-0.466,2.434
		c-0.31,0.735-0.765,1.369-1.362,1.901c-0.599,0.531-1.341,0.946-2.228,1.243s-1.901,0.445-3.045,0.445H570.125z M570.125,187.868
		h3.059c0.735,0,1.385-0.098,1.948-0.293c0.562-0.194,1.034-0.467,1.416-0.817c0.381-0.35,0.669-0.769,0.864-1.257
		c0.194-0.487,0.292-1.023,0.292-1.608c0-1.215-0.374-2.163-1.123-2.846s-1.882-1.023-3.397-1.023h-3.059V187.868z"/>
	<path class="st10" d="M595.901,190.827c0.093,0.234,0.184,0.472,0.272,0.711c0.089-0.248,0.182-0.485,0.279-0.711
		c0.098-0.227,0.208-0.455,0.332-0.686l6.449-11.714c0.115-0.204,0.235-0.328,0.359-0.373c0.124-0.044,0.301-0.066,0.531-0.066
		h1.902v19.055h-2.261v-14.002c0-0.186,0.004-0.385,0.013-0.598s0.022-0.431,0.04-0.652l-6.528,11.914
		c-0.222,0.399-0.532,0.599-0.931,0.599h-0.372c-0.399,0-0.71-0.199-0.932-0.599l-6.675-11.953c0.026,0.23,0.047,0.456,0.06,0.678
		c0.014,0.222,0.021,0.426,0.021,0.611v14.002h-2.261v-19.055h1.901c0.23,0,0.408,0.022,0.532,0.066
		c0.124,0.045,0.243,0.169,0.359,0.373l6.581,11.728C595.699,190.368,595.809,190.592,595.901,190.827z"/>
	<path class="st10" d="M625.067,177.988v2.102h-9.148v6.329h7.406v2.021h-7.406v6.503h9.148v2.101h-11.741v-19.055H625.067z"/>
	<path class="st10" d="M633.278,178.075c0.11,0.058,0.237,0.175,0.379,0.353l11.036,14.36c-0.026-0.23-0.044-0.454-0.053-0.672
		c-0.009-0.217-0.014-0.428-0.014-0.631v-13.497h2.261v19.055h-1.303c-0.204,0-0.375-0.035-0.513-0.106
		c-0.137-0.07-0.272-0.19-0.405-0.359l-11.023-14.347c0.019,0.222,0.031,0.438,0.04,0.651s0.014,0.408,0.014,0.585v13.576h-2.261
		v-19.055h1.33C632.997,177.988,633.167,178.018,633.278,178.075z"/>
	<path class="st10" d="M667.179,177.988v2.168h-6.156v16.887h-2.579v-16.887h-6.184v-2.168H667.179z"/>
</g>
<g>
	<polyline class="st49" points="98.826,58.208 98.826,82.788 62.01,49.637 62.01,104.941 71.174,104.941 71.174,71.87 
		108.07,105.021 108.07,104.941 108.07,104.862 108.07,48.783 	"/>
	<path class="st10" d="M156.942,49.717c7.651,0,14.158,2.709,19.524,8.128c5.471,5.419,8.208,11.928,8.208,19.524
		c0,7.704-2.736,14.212-8.208,19.523c-5.366,5.419-11.874,8.129-19.524,8.129c-7.65,0-14.158-2.71-19.523-8.129
		c-5.419-5.365-8.129-11.874-8.129-19.523c0-7.597,2.71-14.105,8.129-19.524C142.73,52.426,149.239,49.717,156.942,49.717z
		 M156.942,58.961c-5.047,0-9.403,1.807-13.069,5.419c-3.56,3.613-5.34,7.943-5.34,12.99c0,5.047,1.78,9.404,5.34,13.069
		c3.666,3.56,8.021,5.34,13.069,5.34c5.047,0,9.376-1.78,12.99-5.34c3.613-3.665,5.419-8.021,5.419-13.069
		c0-5.047-1.806-9.376-5.419-12.99C166.318,60.768,161.989,58.961,156.942,58.961z"/>
	<path class="st10" d="M241.461,105.021l-10.679-18.408h-15.619v18.408h-9.165V49.717h27.652c5.047,0,9.376,1.806,12.99,5.419
		c3.613,3.613,5.419,7.943,5.419,12.99c0,3.825-1.089,7.305-3.267,10.439c-2.125,3.082-4.835,5.287-8.129,6.615l11.396,19.842
		H241.461z M233.651,58.961h-18.487v18.328l18.487,0.08c2.497,0,4.649-0.903,6.455-2.71c1.805-1.805,2.71-3.984,2.71-6.534
		c0-2.497-0.904-4.649-2.71-6.455C238.299,59.865,236.148,58.961,233.651,58.961z"/>
	<path class="st10" d="M268.674,49.717h46.14v9.244h-18.408v46.06h-9.244v-46.06h-18.488V49.717z"/>
	<path class="st10" d="M335.652,49.717h9.165v23.03h27.652v-23.03h9.244v55.304h-9.244v-23.03h-27.652v23.03h-9.165V49.717z"/>
	<path class="st10" d="M445.033,49.717v9.244h-27.652v13.866h26.799v9.165h-26.799v13.787h27.652v9.244h-36.817V49.717H445.033z"/>
	<path class="st10" d="M506.998,105.021l-10.679-18.408H480.7v18.408h-9.165V49.717h27.652c5.047,0,9.376,1.806,12.99,5.419
		c3.613,3.613,5.419,7.943,5.419,12.99c0,3.825-1.089,7.305-3.267,10.439c-2.125,3.082-4.835,5.287-8.129,6.615l11.396,19.842
		H506.998z M499.188,58.961H480.7v18.328l18.487,0.08c2.497,0,4.649-0.903,6.455-2.71c1.805-1.805,2.71-3.984,2.71-6.534
		c0-2.497-0.904-4.649-2.71-6.455C503.836,59.865,501.685,58.961,499.188,58.961z"/>
	<path class="st10" d="M542.394,49.717h9.165v46.06h27.652v9.244h-36.817V49.717z"/>
	<path class="st10" d="M603.156,49.717h9.165v55.304h-9.165V49.717z"/>
</g>
<path class="st10" d="M656.388,24v107.77H22V24H656.388 M666.388,14h-10H22H12v10v107.77v10h10h634.388h10v-10V24V14L666.388,14z"/>
</svg>
